<?xml version="1.0" standalone="no"?>
<!DOCTYPE svg PUBLIC "-//W3C//DTD SVG 20010904//EN"
 "http://www.w3.org/TR/2001/REC-SVG-20010904/DTD/svg10.dtd">
<svg version="1.0" xmlns="http://www.w3.org/2000/svg"
 width="1000.000000pt" height="1000.000000pt" viewBox="0 0 1000.000000 1000.000000"
 preserveAspectRatio="xMidYMid meet">
<metadata>
Created by potrace 1.14, written by Peter Selinger 2001-2017
</metadata>
<g transform="translate(0.000000,1000.000000) scale(0.100000,-0.100000)"
fill="#000000" stroke="none">
<path d="M4821 7244 c-17 -14 -40 -43 -53 -65 -12 -21 -25 -39 -28 -39 -3 0
-17 19 -30 43 -33 61 -50 77 -79 77 -33 -1 -47 -12 -99 -78 l-41 -53 -35 56
c-47 72 -71 74 -134 8 -42 -43 -46 -45 -56 -28 -52 91 -122 86 -197 -13 l-41
-54 -19 31 c-15 26 -25 31 -56 31 -30 0 -44 -8 -79 -44 l-42 -44 -12 28 c-18
44 -44 64 -68 51 -26 -14 -92 -94 -126 -153 -32 -55 -78 -230 -103 -390 -18
-118 -25 -466 -10 -521 5 -19 4 -29 -5 -31 -7 -2 -33 -9 -57 -16 -51 -14 -140
-92 -165 -145 -36 -76 -13 -169 62 -248 63 -66 102 -81 228 -85 l111 -4 56
-68 c31 -38 80 -88 109 -110 107 -85 285 -158 457 -187 94 -16 99 -18 84 -35
-8 -9 -19 -46 -22 -80 -4 -35 -13 -73 -21 -84 -17 -27 -7 -54 20 -54 26 0 60
54 61 100 1 43 11 81 22 81 4 -1 63 -1 131 -1 101 0 125 3 130 15 12 31 -5 45
-54 45 -43 0 -49 3 -54 25 -4 15 -14 25 -24 25 -49 0 -254 22 -302 31 -154 32
-329 112 -417 192 -215 197 -325 574 -292 997 17 225 78 494 117 522 10 7 27
31 38 52 25 52 36 54 56 12 18 -36 48 -53 72 -39 7 4 29 28 47 52 43 56 54 59
67 22 12 -34 44 -55 72 -46 11 4 40 35 65 70 25 34 52 65 60 69 14 5 45 -18
45 -33 0 -15 52 -61 68 -61 9 0 37 23 63 51 l47 51 27 -46 c51 -87 93 -86 156
4 23 33 46 60 50 60 5 0 24 -25 43 -55 35 -54 68 -74 100 -62 8 3 32 32 53 63
21 32 43 59 48 61 6 1 21 -21 35 -50 21 -43 30 -53 54 -55 25 -3 37 5 81 54
l51 58 25 -45 c23 -41 27 -44 64 -43 22 1 49 3 60 5 18 4 21 -4 31 -63 13 -82
25 -98 73 -98 20 0 42 -5 47 -10 8 -8 19 -7 38 1 47 22 41 0 -16 -59 -31 -31
-61 -67 -67 -79 -29 -58 3 -93 86 -93 29 0 53 -4 53 -8 0 -5 -14 -21 -31 -38
-57 -53 -89 -105 -89 -143 0 -47 21 -77 65 -91 19 -6 35 -15 35 -18 0 -4 -11
-25 -25 -47 -26 -42 -32 -80 -15 -90 6 -3 10 -23 10 -43 0 -26 8 -46 25 -65
14 -15 29 -27 32 -27 4 0 24 12 44 26 51 35 113 43 141 18 47 -43 61 -126 33
-205 -26 -72 -94 -179 -128 -200 -18 -10 -50 -19 -73 -19 -43 0 -64 -14 -64
-41 0 -31 53 -38 124 -17 57 17 114 80 167 183 36 72 44 98 47 156 5 86 -15
145 -64 189 -29 25 -43 30 -88 30 -30 0 -70 -7 -90 -15 -40 -17 -40 -16 -49
39 -3 18 4 48 19 80 41 88 28 126 -44 126 -64 0 -47 52 47 145 94 91 82 126
-44 141 -30 4 -55 10 -55 13 0 4 32 38 70 76 39 38 70 77 70 86 0 38 -74 69
-166 69 l-51 0 -6 51 c-11 93 -52 130 -114 104 -21 -9 -39 -12 -41 -8 -1 4
-13 26 -25 48 -35 62 -66 60 -133 -9 l-53 -55 -21 47 c-11 25 -26 50 -33 54
-23 15 -56 8 -86 -18z m-1272 -1341 c12 -49 38 -126 57 -173 19 -47 35 -89 37
-95 1 -6 -29 -10 -78 -9 -113 1 -169 34 -216 126 -37 72 -16 141 58 190 107
72 114 69 142 -39z"/>
<path d="M4754 6275 c-22 -56 186 -120 233 -72 26 26 1 44 -65 49 -31 2 -72
12 -91 21 -42 21 -70 22 -77 2z"/>
<path d="M4027 6189 c-61 -32 -128 -36 -178 -10 -37 19 -44 20 -57 8 -8 -9
-11 -23 -8 -34 17 -54 162 -71 251 -29 63 29 82 50 65 71 -16 19 -27 18 -73
-6z"/>
<path d="M4560 6108 c-130 -27 -228 -55 -350 -100 -74 -27 -137 -51 -138 -53
-2 -2 -5 -16 -7 -32 -1 -15 -5 -35 -9 -44 -8 -18 40 -81 76 -100 30 -16 59 9
92 80 32 65 41 73 51 41 10 -31 64 -80 89 -80 36 0 60 24 110 110 26 44 53 83
62 87 20 7 44 -15 62 -57 37 -90 68 -91 150 -6 59 61 63 63 73 43 7 -13 10
-54 6 -111 -5 -100 -27 -169 -77 -241 -36 -52 -38 -71 -8 -81 66 -21 171 249
153 392 -13 110 -85 165 -215 163 -41 -1 -95 -5 -120 -11z m185 -58 c11 -5 15
-9 9 -9 -6 -1 -28 -16 -51 -35 l-40 -35 -16 35 c-10 19 -17 36 -17 39 0 13 86
17 115 5z m-295 -34 c0 -15 -75 -126 -84 -126 -12 0 -62 78 -55 84 5 4 122 44
132 45 4 1 7 -1 7 -3z m-280 -126 c-21 -42 -32 -44 -50 -10 -9 17 -6 22 22 34
49 21 50 20 28 -24z"/>
<path d="M5375 5761 c-3 -5 -25 -49 -50 -98 -66 -133 -83 -148 -259 -243 -213
-115 -207 -110 -214 -199 -3 -50 -1 -75 7 -80 14 -9 82 -7 162 4 l56 7 7 -35
c7 -40 29 -62 51 -53 36 14 1 142 -42 152 -13 4 -59 0 -101 -9 -42 -8 -79 -14
-81 -12 -2 2 -1 19 3 38 6 32 15 39 124 97 249 134 261 145 347 311 30 59 44
96 40 109 -7 20 -39 27 -50 11z"/>
<path d="M3112 5345 c-11 -14 -26 -25 -34 -25 -8 0 -27 -13 -42 -29 -15 -16
-41 -32 -58 -35 -41 -8 -96 -68 -104 -112 -15 -83 19 -194 71 -228 14 -9 44
-18 65 -19 48 -2 90 33 90 73 0 23 4 26 36 26 43 0 64 23 64 69 0 17 5 36 12
43 9 9 19 -12 43 -91 54 -179 128 -285 235 -336 49 -23 67 -25 160 -25 73 1
128 7 182 22 108 29 291 120 366 181 34 28 70 51 80 51 41 0 57 51 23 70 -28
14 -54 1 -136 -65 -72 -59 -202 -127 -315 -165 -46 -16 -98 -24 -180 -27 -112
-5 -117 -4 -169 24 -94 49 -179 201 -203 363 -6 41 -15 80 -20 87 -6 8 -2 13
11 18 25 8 37 48 25 84 -24 68 -161 99 -202 46z m119 -45 c25 -14 24 -30 -2
-30 -25 0 -59 17 -59 30 0 13 36 13 61 0z m-103 -120 c33 -20 40 -34 22 -45
-5 -3 -10 -21 -10 -40 0 -31 -3 -34 -32 -37 -27 -2 -34 -8 -36 -29 -5 -39 -45
-73 -76 -65 -49 12 -79 116 -52 180 18 43 40 54 65 32 23 -21 38 -20 53 4 16
25 25 25 66 0z"/>
<path d="M5184 5112 c-35 -35 -9 -47 128 -60 81 -8 146 -21 210 -42 168 -56
387 -186 471 -280 66 -74 142 -234 161 -340 8 -47 19 -98 25 -113 17 -45 13
-76 -15 -104 l-26 -26 -12 24 c-29 59 -74 14 -55 -55 10 -34 21 -42 58 -36 24
3 83 47 102 77 21 31 25 96 8 140 -5 15 -16 62 -23 103 -26 147 -124 333 -222
418 -98 87 -328 214 -470 260 -56 18 -178 38 -283 45 -27 2 -49 -2 -57 -11z"/>
<path d="M3033 4874 c-3 -9 1 -39 10 -68 41 -126 201 -307 329 -370 208 -102
436 -107 686 -14 44 16 53 24 50 41 -4 30 -43 27 -188 -13 -107 -29 -123 -31
-230 -27 -196 8 -335 68 -451 195 -66 72 -113 145 -140 216 -15 42 -25 56 -40
56 -11 0 -22 -7 -26 -16z"/>
<path d="M7405 4820 c-12 -14 -25 -18 -41 -14 -39 10 -73 -4 -80 -31 -4 -18
-13 -25 -31 -25 -36 0 -73 -42 -73 -84 0 -44 42 -98 61 -79 10 10 10 21 -1 53
-16 48 -9 58 45 62 35 3 40 6 43 31 4 32 4 32 42 12 27 -14 30 -14 49 11 l20
26 15 -36 c8 -20 20 -36 26 -36 6 0 10 -10 8 -22 -3 -20 -9 -23 -43 -23 -38 0
-41 -2 -54 -43 -10 -34 -17 -42 -30 -36 -29 13 -86 10 -86 -5 0 -26 69 -52
126 -48 40 3 53 9 87 45 50 52 72 130 47 168 -9 13 -20 24 -25 24 -5 0 -12 9
-15 20 -16 49 -59 64 -90 30z"/>
<path d="M4271 4678 c-44 -47 -83 -201 -130 -518 -39 -264 -53 -435 -49 -586
l3 -121 -47 -71 c-64 -96 -210 -264 -302 -347 -79 -71 -89 -86 -80 -110 13
-33 48 -11 156 98 142 143 238 258 311 373 61 98 69 129 36 139 -20 7 -21 11
-14 158 15 347 101 842 163 949 13 22 13 29 3 42 -18 21 -26 20 -50 -6z"/>
<path d="M5287 4673 c-4 -3 -7 -16 -7 -28 0 -21 6 -23 88 -28 93 -5 211 -41
327 -99 85 -43 219 -145 298 -228 50 -52 75 -70 90 -68 40 6 29 35 -40 108
-135 144 -304 251 -496 315 -82 28 -120 35 -179 35 -41 0 -78 -3 -81 -7z"/>
<path d="M5384 4565 c-4 -9 -4 -127 -1 -263 6 -256 11 -299 71 -577 34 -158
50 -198 94 -235 52 -43 243 -223 394 -369 98 -96 130 -134 140 -165 11 -34 18
-41 38 -41 21 0 26 5 28 32 5 50 -32 96 -214 269 -92 87 -200 191 -239 230
-38 39 -79 74 -90 78 -34 10 -54 58 -90 218 -54 238 -67 343 -74 598 -6 234
-6 235 -29 238 -13 2 -25 -3 -28 -13z"/>
<path d="M1703 4510 c-17 -10 -37 -29 -43 -40 -18 -33 -14 -109 8 -159 11 -25
26 -61 32 -79 19 -50 63 -82 115 -82 24 0 47 -5 50 -10 12 -19 79 0 105 29 14
15 47 39 74 52 54 26 96 74 96 108 0 58 -57 111 -119 111 -20 0 -34 7 -41 20
-16 29 -57 43 -92 31 -24 -8 -34 -6 -65 14 -43 30 -77 31 -120 5z m98 -66 c28
-21 41 -25 76 -20 36 5 46 2 67 -19 18 -18 36 -25 65 -25 32 0 44 -5 57 -25
21 -32 10 -47 -60 -82 -28 -14 -61 -37 -73 -52 l-21 -26 -32 18 c-28 17 -33
17 -55 3 -21 -14 -25 -14 -43 2 -27 23 -72 139 -72 185 0 26 6 40 22 51 29 20
28 21 69 -10z"/>
<path d="M7820 4423 c-8 -3 -25 -15 -38 -26 -16 -15 -34 -20 -60 -18 -28 1
-43 -3 -56 -18 -37 -41 -13 -151 33 -151 29 0 71 -39 71 -65 0 -34 21 -43 38
-17 8 12 23 22 34 22 28 0 89 28 115 52 29 27 31 68 3 68 -10 0 -24 -9 -30
-21 -7 -11 -27 -27 -46 -35 -33 -14 -36 -14 -54 8 -14 17 -22 20 -30 12 -9 -9
-22 -6 -53 10 -34 18 -43 28 -45 54 -4 35 12 42 49 20 18 -12 23 -9 47 20 21
24 35 32 60 32 33 0 54 23 36 40 -13 12 -56 20 -74 13z"/>
<path d="M7327 4353 c-13 -12 -7 -54 9 -60 24 -9 36 10 25 40 -10 27 -21 33
-34 20z"/>
<path d="M7875 4340 c-22 -24 -13 -50 18 -50 31 0 51 23 42 50 -8 25 -37 26
-60 0z"/>
<path d="M6978 4189 c-18 -17 -28 -38 -28 -56 0 -25 -6 -30 -47 -43 -36 -11
-50 -22 -57 -41 -12 -36 0 -76 34 -110 22 -23 38 -29 70 -29 23 0 57 -7 76
-16 l34 -16 48 43 c26 25 57 53 69 64 31 29 63 109 63 160 0 52 -29 82 -62 64
-13 -7 -23 -7 -31 -1 -7 6 -41 10 -77 9 -56 -1 -69 -5 -92 -28z m73 -39 c13
-8 25 -7 39 0 16 8 25 7 42 -4 15 -11 26 -12 40 -5 14 7 18 6 18 -5 0 -24 -42
-126 -52 -126 -6 0 -23 -11 -40 -25 -26 -22 -39 -25 -103 -25 -67 0 -74 2 -90
26 -24 38 -13 52 42 56 47 3 48 4 51 38 6 80 14 90 53 70z"/>
<path d="M7055 4030 c-14 -16 -15 -22 -5 -35 17 -21 52 -1 48 27 -4 29 -21 32
-43 8z"/>
<path d="M7440 4051 c-15 -29 -12 -61 5 -61 17 0 49 56 40 70 -10 16 -34 11
-45 -9z"/>
<path d="M7347 4003 c-4 -3 -7 -100 -7 -215 0 -194 1 -209 18 -206 11 2 18 14
20 36 2 17 9 32 16 32 15 0 76 62 76 78 0 21 -33 13 -62 -15 l-28 -27 0 162
c0 128 -3 162 -13 162 -8 0 -17 -3 -20 -7z"/>
<path d="M1891 3916 c-9 -10 -9 -42 -1 -122 11 -115 19 -136 45 -114 14 12 15
28 9 114 -8 126 -23 159 -53 122z"/>
<path d="M7656 3898 c-20 -28 -20 -47 -1 -55 19 -7 44 23 45 55 0 29 -24 29
-44 0z"/>
<path d="M1514 3876 c-8 -22 14 -56 36 -56 22 0 26 20 10 51 -12 22 -38 25
-46 5z"/>
<path d="M2014 3797 c-33 -30 -43 -47 -39 -60 4 -9 14 -17 23 -17 11 0 7 -10
-16 -33 -39 -40 -42 -67 -8 -67 16 0 36 14 60 42 37 43 46 73 24 80 -9 3 -3
16 15 37 22 26 25 36 16 47 -17 21 -26 18 -75 -29z"/>
<path d="M2445 3756 c-13 -13 -27 -35 -30 -49 -6 -22 -11 -24 -45 -20 -35 5
-40 3 -45 -20 -16 -64 84 -157 169 -157 26 0 40 7 61 32 25 29 26 36 22 108
-3 43 -10 86 -16 97 -21 40 -80 45 -116 9z m59 -71 c-4 -22 -2 -41 6 -50 7 -9
10 -26 6 -41 -6 -23 -10 -25 -39 -19 -45 10 -54 21 -34 43 9 10 17 22 17 26 0
3 7 22 14 41 20 46 39 46 30 0z"/>
<path d="M1651 3701 c-15 -26 -14 -48 5 -139 16 -80 67 -267 86 -314 11 -29
44 -46 59 -31 5 5 2 30 -6 57 -8 27 -15 69 -15 94 0 43 1 44 18 29 10 -10 24
-17 30 -17 18 0 42 30 42 52 0 16 -5 19 -24 16 -23 -5 -27 1 -56 81 -43 120
-80 185 -107 189 -14 2 -26 -4 -32 -17z m83 -143 c20 -54 21 -67 11 -92 -7
-16 -15 -25 -18 -19 -10 17 -37 144 -37 176 1 40 10 25 44 -65z"/>
<path d="M7157 3693 c-4 -3 -7 -18 -7 -31 0 -27 70 -102 95 -102 31 0 27 25
-11 56 -42 36 -43 57 -1 24 31 -25 60 -26 55 -3 -7 37 -107 80 -131 56z"/>
<path d="M7910 3677 c-95 -28 -158 -73 -221 -157 -67 -88 -152 -257 -193 -382
-47 -143 -50 -157 -31 -164 9 -4 18 -4 20 -2 3 2 19 51 35 109 58 194 183 419
275 495 37 30 110 64 137 64 6 0 -13 -25 -41 -56 -28 -30 -73 -90 -101 -132
-62 -95 -234 -438 -225 -451 15 -25 42 13 115 163 107 219 169 315 268 418 56
58 82 93 78 103 -7 20 -26 18 -116 -8z"/>
<path d="M7571 3656 c-16 -19 -6 -36 20 -36 15 0 20 6 17 22 -4 27 -21 33 -37
14z"/>
<path d="M7394 3585 c-32 -32 -27 -49 17 -51 43 -3 59 11 59 47 0 24 -4 29
-25 29 -14 0 -37 -11 -51 -25z"/>
<path d="M1863 3564 c-7 -20 4 -30 45 -39 27 -6 32 -4 32 12 0 11 -5 24 -12
31 -17 17 -58 15 -65 -4z"/>
<path d="M7219 3497 c-13 -29 4 -214 21 -231 22 -22 28 13 22 128 -7 123 -20
153 -43 103z"/>
<path d="M8135 3496 c-68 -31 -121 -117 -155 -254 l-22 -91 -26 10 c-69 26
-172 -23 -286 -136 -91 -90 -127 -112 -146 -89 -16 18 -48 18 -80 -1 -32 -18
-40 -18 -40 -2 0 8 -9 22 -21 32 -17 16 -25 17 -50 8 -16 -6 -29 -7 -29 -2 0
16 60 160 105 250 50 101 90 162 129 198 23 22 26 22 26 6 0 -10 -16 -47 -35
-82 -29 -52 -32 -65 -20 -69 22 -9 39 10 69 75 36 82 42 114 21 134 -24 24
-31 22 -83 -27 -54 -50 -121 -160 -179 -291 -62 -140 -76 -182 -68 -202 5 -10
7 -25 6 -35 -3 -27 17 -31 46 -8 l27 21 24 -31 c26 -34 51 -38 88 -14 23 15
26 15 44 -1 14 -13 26 -15 47 -10 15 5 31 8 35 7 19 -4 127 22 159 39 20 10
81 55 134 100 98 83 98 83 91 48 -4 -19 -10 -56 -13 -83 -5 -43 -4 -48 12 -44
15 2 22 19 33 73 41 212 54 262 77 313 14 32 40 72 58 90 62 64 63 31 2 -89
-40 -79 -43 -89 -29 -103 17 -18 24 -19 42 -8 7 5 10 16 6 25 -4 10 9 48 31
92 39 80 49 140 25 156 -19 11 -19 11 -55 -5z m-245 -375 c0 -18 -175 -151
-217 -165 -24 -8 -43 -11 -43 -7 0 10 80 85 132 125 51 38 128 67 128 47z"/>
<path d="M1484 3477 c-3 -8 29 -107 70 -220 42 -114 76 -209 76 -213 0 -4 -29
21 -64 55 -74 71 -115 91 -184 91 -130 0 -92 -106 79 -227 43 -30 81 -59 84
-64 12 -19 36 -9 33 13 -2 15 -27 39 -73 70 -74 51 -155 131 -155 154 0 20 68
18 108 -3 40 -22 136 -116 164 -161 16 -26 19 -42 13 -82 -6 -43 -5 -50 10
-50 10 0 35 20 57 45 22 25 53 52 69 60 l28 15 3 -38 c3 -32 7 -37 31 -40 15
-2 42 4 60 13 17 10 48 18 69 20 34 2 37 0 42 -30 9 -46 28 -59 75 -51 28 4
42 2 51 -9 7 -8 21 -15 32 -15 22 0 108 56 108 70 0 22 -24 20 -61 -5 -38 -25
-42 -25 -59 -10 -14 13 -28 15 -59 10 l-40 -7 -12 46 c-16 63 -21 64 -139 26
-14 -4 -33 -11 -42 -15 -14 -5 -17 0 -20 32 -2 32 -7 39 -28 42 -14 1 -40 -5
-58 -15 -32 -17 -33 -17 -51 2 -10 10 -35 71 -55 134 -49 159 -129 363 -144
368 -7 2 -15 -3 -18 -11z"/>
<path d="M2191 3426 c-14 -17 -7 -36 14 -36 22 0 29 20 13 36 -13 13 -16 13
-27 0z"/>
<path d="M6939 3416 c-15 -32 -6 -77 30 -153 40 -84 98 -167 159 -229 41 -41
51 -59 54 -90 2 -27 8 -39 18 -39 19 0 25 101 11 180 -22 116 -124 290 -196
335 -43 26 -63 25 -76 -4z m98 -73 c22 -27 49 -64 61 -84 29 -48 72 -164 72
-192 -1 -20 -3 -19 -32 13 -69 79 -146 213 -162 283 -10 43 16 34 61 -20z"/>
<path d="M7124 3375 c-4 -9 -2 -21 4 -27 15 -15 44 -1 40 19 -4 23 -36 29 -44
8z"/>
<path d="M4671 3320 c-24 -11 -89 -58 -144 -105 -56 -47 -188 -144 -293 -216
-106 -71 -231 -165 -279 -207 -130 -116 -164 -142 -190 -142 -83 0 -391 157
-363 185 9 9 99 -10 171 -36 42 -16 57 -26 57 -41 0 -29 26 -32 67 -7 21 13
51 31 68 39 33 17 43 43 25 65 -15 18 -55 19 -117 4 -39 -10 -53 -9 -107 9
-33 12 -97 26 -141 32 -44 7 -94 19 -112 27 -39 18 -67 14 -71 -10 -7 -35 175
-200 277 -252 74 -37 235 -86 266 -81 33 7 81 43 212 160 48 43 169 133 268
200 99 66 227 161 285 209 58 49 123 97 145 108 46 21 128 25 207 8 93 -20
367 -127 558 -219 169 -81 371 -172 460 -206 19 -7 50 -13 68 -14 17 0 32 -2
32 -4 0 -2 -11 -28 -25 -58 -28 -61 -31 -90 -10 -108 21 -17 50 -7 124 42 l64
43 59 145 c32 79 58 155 58 168 0 46 -52 37 -64 -11 -3 -13 -29 -78 -57 -145
-42 -99 -57 -126 -80 -138 -35 -17 -35 -15 -8 30 29 50 23 78 -21 88 -19 5
-51 10 -70 12 -44 4 -249 91 -500 211 -192 92 -438 190 -555 220 -85 22 -209
20 -264 -5z"/>
<path d="M1884 3306 c-19 -31 -47 -133 -39 -146 16 -25 33 -5 51 58 11 41 20
59 22 45 2 -12 -4 -45 -12 -73 -14 -46 -14 -52 0 -57 9 -3 33 4 54 16 40 22
80 28 80 10 0 -15 -60 -67 -91 -78 -22 -8 -31 -6 -45 10 -24 26 -44 24 -44 -6
0 -15 10 -31 25 -41 22 -14 32 -15 64 -6 81 25 154 108 131 151 -12 23 -42 35
-70 27 -59 -17 -56 -19 -52 24 6 62 -4 90 -33 90 -15 0 -31 -9 -41 -24z"/>
<path d="M2241 3278 c-17 -18 -31 -39 -31 -45 0 -24 36 -13 68 20 25 26 29 36
20 45 -18 18 -24 15 -57 -20z"/>
<path d="M2327 3286 c-13 -13 -33 -55 -47 -92 -31 -90 -31 -195 0 -278 27 -69
65 -115 83 -97 9 9 7 18 -6 39 -39 60 -51 99 -55 182 -3 69 0 96 18 143 12 31
26 55 31 52 5 -4 9 -85 9 -181 0 -160 2 -176 20 -194 11 -11 26 -17 35 -14 8
4 15 1 15 -5 0 -6 7 -11 15 -11 8 0 31 35 54 84 50 108 172 278 187 263 7 -7
-31 -97 -71 -167 -51 -90 -56 -105 -41 -126 17 -22 46 -12 40 14 -3 11 10 45
31 81 82 140 108 252 59 259 -40 6 -189 -180 -244 -305 -25 -56 -46 -68 -54
-30 -3 12 -7 101 -8 198 -3 130 -7 181 -17 193 -18 22 -28 20 -54 -8z"/>
<path d="M7204 3216 c-9 -35 -1 -71 15 -71 20 0 36 62 20 81 -17 20 -28 17
-35 -10z"/>
<path d="M2968 3166 c-8 -20 -8 -30 0 -38 19 -19 44 -1 40 29 -4 36 -25 40
-40 9z"/>
<path d="M6845 3088 c-25 -19 -27 -26 -22 -69 3 -26 13 -61 21 -77 14 -26 14
-31 1 -42 -19 -16 -19 -36 0 -44 16 -6 55 26 55 45 0 7 -10 38 -21 70 -26 71
-21 89 25 89 49 0 97 -45 154 -142 50 -88 59 -97 69 -72 8 22 -45 127 -94 184
-37 43 -100 79 -139 80 -12 0 -34 -10 -49 -22z"/>
<path d="M8089 3100 c-9 -5 -29 -28 -44 -51 -28 -39 -28 -42 -11 -54 9 -7 16
-21 14 -31 -6 -35 28 -26 56 16 34 52 49 51 30 -2 -27 -78 -7 -85 80 -31 33
20 61 32 63 26 14 -42 65 -60 97 -34 22 19 9 42 -20 35 -19 -5 -26 -1 -35 19
-17 38 -36 40 -86 12 -25 -14 -46 -25 -48 -25 -1 0 -1 19 -1 43 1 37 -2 42
-23 45 -13 2 -28 -1 -34 -7 -18 -18 -28 -12 -15 9 15 24 1 43 -23 30z"/>
<path d="M6543 3062 c-16 -12 -22 -27 -22 -52 0 -19 -2 -50 -6 -67 -6 -27 -4
-33 10 -33 11 0 24 18 38 50 11 28 27 50 34 50 19 0 35 -38 28 -70 -7 -32 8
-48 29 -31 39 33 17 105 -45 145 -45 31 -39 30 -66 8z"/>
<path d="M2679 2980 c-17 -16 -27 -35 -24 -40 4 -6 1 -18 -6 -26 -9 -11 -9
-18 -1 -26 15 -15 44 -2 40 19 -3 21 9 43 23 43 5 0 9 -8 9 -19 0 -32 26 -46
52 -29 16 11 28 12 39 5 20 -12 89 30 89 56 0 19 -17 22 -40 7 -10 -6 -20 -4
-32 7 -16 14 -20 14 -43 -1 -21 -14 -25 -14 -25 -2 0 14 -28 36 -45 36 -4 0
-20 -13 -36 -30z"/>
<path d="M8558 2954 c-41 -38 -49 -64 -20 -64 23 0 96 75 88 89 -12 19 -30 12
-68 -25z"/>
<path d="M8707 2976 c-8 -19 15 -37 32 -26 17 10 7 40 -13 40 -7 0 -16 -6 -19
-14z"/>
<path d="M1334 2915 c-4 -18 -1 -32 10 -43 21 -21 39 -4 34 34 -4 39 -35 45
-44 9z"/>
<path d="M1210 2880 c0 -16 5 -21 23 -18 12 2 22 10 22 18 0 8 -10 16 -22 18
-18 3 -23 -2 -23 -18z"/>
<path d="M8772 2883 c2 -10 10 -18 18 -18 8 0 16 8 18 18 2 12 -3 17 -18 17
-15 0 -20 -5 -18 -17z"/>
</g>
</svg>
